<?xml version="1.0" standalone="no"?>
<!DOCTYPE svg PUBLIC "-//W3C//DTD SVG 20010904//EN"
 "http://www.w3.org/TR/2001/REC-SVG-20010904/DTD/svg10.dtd">
<svg version="1.0" xmlns="http://www.w3.org/2000/svg"
 width="128.000000pt" height="128.000000pt" viewBox="0 0 128.000000 128.000000"
 preserveAspectRatio="xMidYMid meet">
<metadata>
Created by potrace 1.11, written by Peter Selinger 2001-2013
</metadata>
<g transform="translate(0.000000,128.000000) scale(0.100000,-0.100000)"
fill="#000000" stroke="none">
<path d="M49 1162 c-1 -9 -1 -20 0 -24 0 -5 -8 -8 -19 -8 -11 0 -20 -6 -21
-12 -1 -14 0 -1020 0 -1028 1 -3 284 -5 631 -5 l630 0 0 523 c0 507 -1 522
-19 522 -14 0 -19 6 -17 25 l3 24 -129 0 c-128 0 -129 0 -126 -22 2 -18 -2
-23 -29 -25 -29 -3 -33 -1 -33 22 l0 26 -125 -1 c-125 -1 -125 -1 -125 -25 0
-21 -5 -24 -35 -24 -30 0 -35 3 -35 24 l0 25 -122 -2 c-121 -2 -123 -2 -122
-24 1 -20 -4 -23 -32 -23 -29 0 -34 3 -34 25 l0 25 -120 -1 c-106 0 -120 -2
-121 -17z"/>
</g>
</svg>
